<svg width="128" height="128" viewBox="0 0 128 128" fill="none" xmlns="http://www.w3.org/2000/svg">
<path fill-rule="evenodd" clip-rule="evenodd" d="M113.698 66.6332C113.351 65.5322 112.478 65.0698 111.419 65.0742C110.5 65.0785 110.206 64.6623 110.019 63.8397C108.845 58.6872 107.645 53.5403 106.412 48.4017C104.969 42.3892 100.408 38.7917 94.2062 38.7878C74.857 38.7761 55.5077 38.7835 36.1582 38.784C35.0979 38.784 34.0418 38.878 33.0155 39.134C28.0983 40.3612 25.1302 43.5338 23.9552 48.4024C22.7395 53.4403 21.5718 58.4893 20.4303 63.5443C20.2094 64.523 19.9004 65.0729 18.7435 65.1159C17.3243 65.1684 16.5379 66.1217 16.5834 67.3408C16.628 68.5394 17.5245 69.3965 18.9412 69.3747C19.8779 69.3599 20.1405 69.7551 20.3292 70.5853C21.5019 75.7381 22.729 80.8786 23.9432 86.0219C24.5281 88.4992 25.6302 90.6831 27.509 92.4562C29.2536 94.1028 31.3672 94.9803 33.6402 95.5635C54.668 95.5635 75.6959 95.5635 96.7242 95.5635C96.8515 95.5162 96.9756 95.4545 97.1069 95.4232C102.338 94.1675 105.343 90.7873 106.529 85.6269C107.674 80.6426 108.886 75.6733 110.01 70.6844C110.215 69.7743 110.51 69.3655 111.526 69.367C113.127 69.3706 114.134 68.0184 113.698 66.6332ZM105.637 70.5428C104.488 75.2817 103.408 80.0369 102.282 84.781C101.228 89.2224 98.5234 91.3818 93.9581 91.3897C84.3671 91.4066 74.7761 91.3948 65.185 91.3948C55.7304 91.3956 46.2761 91.3979 36.8215 91.3928C35.4534 91.3922 34.0867 91.3126 32.8008 90.7896C30.2989 89.7723 28.8166 87.871 28.2012 85.2843C27.0251 80.3415 25.8929 75.3884 24.7099 70.4471C24.5135 69.6271 24.6909 69.3855 25.558 69.3885C33.5107 69.4167 41.4633 69.421 49.4159 69.3847C50.3921 69.3801 50.6409 69.7201 50.6153 70.6296C50.5439 73.1569 51.234 75.4132 53.1638 77.1799C54.5836 78.4794 56.2573 79.2036 58.1681 79.22C62.8439 79.2594 67.5208 79.2896 72.1956 79.2161C76.4541 79.149 79.6664 75.7033 79.7583 71.244C79.7996 69.2449 79.5282 69.4067 81.6645 69.4059C89.344 69.4029 97.0237 69.42 104.703 69.385C105.66 69.3811 105.863 69.6105 105.637 70.5428ZM75.3764 71.497C75.3152 73.4472 74.0549 74.8255 72.1155 74.8465C67.5144 74.8959 62.9125 74.8948 58.3114 74.8513C56.3103 74.8321 55.0193 73.463 54.9921 71.4578C54.9594 69.0481 54.8291 69.4244 56.9702 69.4095C59.7309 69.3903 62.4922 69.4049 65.2531 69.4049C68.2186 69.4052 71.1849 69.4441 74.1491 69.3834C75.1639 69.3627 75.5118 69.7231 75.3882 70.6795C75.3531 70.9483 75.3851 71.2248 75.3764 71.497ZM104.628 65.0312C91.4859 65.033 78.3437 65.0322 65.2014 65.0322C52.0929 65.0322 38.9847 65.0324 25.8765 65.0319C24.4954 65.0317 24.4977 65.0291 24.8187 63.6628C25.258 61.7935 25.0778 62.0288 26.8659 62.0283C46.5966 62.0224 66.327 62.0247 86.0577 62.0229C86.6017 62.0226 87.148 62.0618 87.6846 61.9028C88.6666 61.6125 89.3407 60.7583 89.3199 59.8026C89.2995 58.869 88.6536 58.0849 87.6969 57.8025C87.0953 57.6251 86.4819 57.6466 85.8683 57.6466C66.6499 57.6461 47.4312 57.6463 28.2127 57.6461C27.8712 57.6461 27.5295 57.6335 27.1887 57.6461C26.5283 57.6701 26.2546 57.4569 26.4333 56.7286C27.0597 54.1786 27.5853 51.6027 28.2519 49.0634C29.2503 45.2598 31.9987 43.1767 35.9557 43.17C44.4554 43.1549 52.9554 43.1647 61.4554 43.1644C72.2762 43.1642 83.0984 43.2484 93.9182 43.1232C98.263 43.0733 101.432 45.6307 102.292 49.6758C103.299 54.4115 104.486 59.1089 105.593 63.8236C105.867 64.9943 105.839 65.0312 104.628 65.0312Z" fill="#42472A"/>
<path fill-rule="evenodd" clip-rule="evenodd" d="M65.185 91.3951C55.7304 91.3956 46.2761 91.3979 36.8215 91.3928C35.4534 91.3922 34.0866 91.3126 32.8008 90.7896C30.2989 89.7723 28.8166 87.871 28.2012 85.2843C27.0251 80.3415 25.8929 75.3884 24.7099 70.4471C24.5135 69.6271 24.6909 69.3855 25.558 69.3885C33.5106 69.4167 41.4633 69.421 49.4159 69.3847C50.3921 69.3801 50.6409 69.7201 50.6153 70.6296C50.5439 73.1569 51.234 75.4132 53.1638 77.1799C54.5835 78.4793 56.2573 79.2036 58.168 79.22C62.8439 79.2594 67.5208 79.2896 72.1956 79.2161C76.4541 79.149 79.6664 75.7033 79.7583 71.244C79.7995 69.2449 79.5282 69.4067 81.6645 69.4059C89.344 69.4029 97.0237 69.42 104.703 69.3849C105.66 69.3806 105.863 69.6102 105.637 70.5423C104.488 75.2811 103.408 80.0363 102.281 84.7805C101.227 89.2219 98.5231 91.3812 93.9579 91.3892C84.3671 91.4068 74.776 91.3948 65.185 91.3951Z" fill="#E1E5CF"/>
<path d="M65.2531 69.4049C68.2186 69.4052 71.1849 69.4441 74.1491 69.3834C75.1639 69.3627 75.5118 69.7231 75.3881 70.6795C75.3531 70.9481 75.3851 71.2246 75.3766 71.4967C75.3154 73.4469 74.0551 74.8252 72.1157 74.8462C67.5146 74.8956 62.9127 74.8946 58.3117 74.8511C56.3105 74.8319 55.0195 73.4628 54.9924 71.4575C54.9596 69.0478 54.8293 69.4241 56.9705 69.4093C59.7309 69.3903 62.4919 69.4049 65.2531 69.4049Z" fill="#9DAA64"/>
<path fill-rule="evenodd" clip-rule="evenodd" d="M96.9907 59.8648C96.9935 61.0519 96.0164 62.0244 94.8418 62.0034C93.7014 61.983 92.788 61.0562 92.7672 59.8984C92.7455 58.6885 93.664 57.7262 94.8534 57.7131C96.0258 57.7001 96.9879 58.6688 96.9907 59.8648Z" fill="#9DAA64"/>
</svg>
