<svg width="18" height="19" viewBox="0 0 18 19" fill="none" xmlns="http://www.w3.org/2000/svg">
<g clip-path="url(#clip0_92_3570)">
<path d="M6.27054 1.09207C4.47206 1.71598 2.92105 2.90018 1.84534 4.47073C0.769623 6.04128 0.2259 7.9154 0.294034 9.81781C0.362168 11.7202 1.03857 13.5506 2.22388 15.0402C3.40919 16.5298 5.04094 17.6 6.87944 18.0936C8.36996 18.4782 9.93158 18.4951 11.4301 18.1429C12.7875 17.8379 14.0426 17.1857 15.0723 16.25C16.1439 15.2465 16.9218 13.9698 17.3223 12.5572C17.7575 11.0211 17.835 9.40573 17.5487 7.83504H9.17866V11.3071H14.026C13.9291 11.8608 13.7215 12.3894 13.4156 12.861C13.1097 13.3327 12.7118 13.7378 12.2457 14.0521C11.6538 14.4436 10.9865 14.7071 10.2868 14.8255C9.58499 14.956 8.86515 14.956 8.16335 14.8255C7.45205 14.6785 6.77918 14.3849 6.18757 13.9635C5.23715 13.2907 4.52352 12.3349 4.14851 11.2325C3.76715 10.1095 3.76715 8.89199 4.14851 7.76895C4.41545 6.98175 4.85674 6.26501 5.43944 5.67223C6.10628 4.98141 6.9505 4.4876 7.87951 4.24499C8.80851 4.00239 9.78639 4.02035 10.7058 4.29692C11.4241 4.51741 12.0809 4.90264 12.624 5.42192C13.1705 4.87817 13.7162 4.33301 14.2609 3.78645C14.5421 3.49254 14.8487 3.2127 15.1257 2.91176C14.2968 2.1404 13.3238 1.54019 12.2626 1.14551C10.33 0.443779 8.21535 0.42492 6.27054 1.09207Z" fill="white"/>
<path d="M6.27053 1.09203C8.21518 0.424418 10.3298 0.44278 12.2626 1.14406C13.324 1.54141 14.2965 2.14452 15.1243 2.91874C14.843 3.21968 14.5463 3.50093 14.2594 3.79343C13.7138 4.33812 13.1687 4.88093 12.624 5.42187C12.0809 4.90259 11.4241 4.51736 10.7058 4.29687C9.78668 4.01933 8.80883 4.00033 7.87959 4.24194C6.95034 4.48356 6.10559 4.97646 5.43803 5.66656C4.85532 6.25934 4.41403 6.97608 4.14709 7.76328L1.23193 5.50624C2.27538 3.43703 4.08205 1.85425 6.27053 1.09203Z" fill="#E33629"/>
<path d="M0.458551 7.74216C0.615237 6.96562 0.875368 6.21361 1.23199 5.50623L4.14714 7.76888C3.76579 8.89192 3.76579 10.1094 4.14714 11.2325C3.17589 11.9825 2.20418 12.7362 1.23199 13.4937C0.339231 11.7167 0.066956 9.69193 0.458551 7.74216Z" fill="#F8BD00"/>
<path d="M9.1786 7.83362H17.5486C17.8349 9.4043 17.7575 11.0197 17.3222 12.5558C16.9217 13.9684 16.1439 15.245 15.0722 16.2486C14.1314 15.5146 13.1864 14.7861 12.2456 14.0521C12.7121 13.7374 13.1102 13.3319 13.4161 12.8597C13.722 12.3876 13.9294 11.8585 14.0259 11.3042H9.1786C9.1772 10.1483 9.1786 8.99096 9.1786 7.83362Z" fill="#587DBD"/>
<path d="M1.23047 13.4938C2.20266 12.7438 3.17437 11.99 4.14562 11.2325C4.52139 12.3353 5.23604 13.2911 6.1875 13.9635C6.78095 14.3829 7.45528 14.6741 8.1675 14.8185C8.8693 14.949 9.58914 14.949 10.2909 14.8185C10.9907 14.7 11.6579 14.4366 12.2498 14.045C13.1906 14.7791 14.1356 15.5075 15.0764 16.2416C14.0469 17.1778 12.7918 17.8305 11.4342 18.1358C9.93573 18.4881 8.37411 18.4712 6.88359 18.0866C5.70474 17.7718 4.60361 17.217 3.64922 16.4568C2.63905 15.6548 1.814 14.6441 1.23047 13.4938Z" fill="#319F43"/>
</g>
<defs>
<clipPath id="clip0_92_3570">
<rect width="18" height="18" fill="white" transform="translate(0 0.5)"/>
</clipPath>
</defs>
</svg>
